<mxfile host="app.diagrams.net" modified="2022-01-04T14:35:44.402Z" agent="5.0 (Windows NT 10.0; Win64; x64) AppleWebKit/537.36 (KHTML, like Gecko) Chrome/96.0.4664.110 Safari/537.36 OPR/82.0.4227.50" etag="Xy4Q4u75WCugEXcgJBus" version="15.9.6" type="github">
  <diagram id="y62suZVVZg3qYujZOhGQ" name="Page-1">
    <mxGraphModel dx="1651" dy="779" grid="1" gridSize="10" guides="1" tooltips="1" connect="1" arrows="1" fold="1" page="1" pageScale="1" pageWidth="827" pageHeight="1169" math="0" shadow="0">
      <root>
        <mxCell id="0" />
        <mxCell id="1" parent="0" />
        <mxCell id="t6TdR9_frLN8_C7O2M3x-8" value="User" style="swimlane;fontStyle=1;align=center;verticalAlign=top;childLayout=stackLayout;horizontal=1;startSize=26;horizontalStack=0;resizeParent=1;resizeParentMax=0;resizeLast=0;collapsible=1;marginBottom=0;" parent="1" vertex="1">
          <mxGeometry x="572.5" y="570" width="190" height="170" as="geometry" />
        </mxCell>
        <mxCell id="t6TdR9_frLN8_C7O2M3x-9" value="+ Mã user: int&#xa;+ Tên: String&#xa;+ Tuổi: int&#xa;+ Địa chỉ: String&#xa;+ Dữ liệu user&#xa;" style="text;strokeColor=none;fillColor=none;align=left;verticalAlign=top;spacingLeft=4;spacingRight=4;overflow=hidden;rotatable=0;points=[[0,0.5],[1,0.5]];portConstraint=eastwest;" parent="t6TdR9_frLN8_C7O2M3x-8" vertex="1">
          <mxGeometry y="26" width="190" height="84" as="geometry" />
        </mxCell>
        <mxCell id="t6TdR9_frLN8_C7O2M3x-10" value="" style="line;strokeWidth=1;fillColor=none;align=left;verticalAlign=middle;spacingTop=-1;spacingLeft=3;spacingRight=3;rotatable=0;labelPosition=right;points=[];portConstraint=eastwest;" parent="t6TdR9_frLN8_C7O2M3x-8" vertex="1">
          <mxGeometry y="110" width="190" height="8" as="geometry" />
        </mxCell>
        <mxCell id="t6TdR9_frLN8_C7O2M3x-11" value="+ setInfo()" style="text;strokeColor=none;fillColor=none;align=left;verticalAlign=top;spacingLeft=4;spacingRight=4;overflow=hidden;rotatable=0;points=[[0,0.5],[1,0.5]];portConstraint=eastwest;" parent="t6TdR9_frLN8_C7O2M3x-8" vertex="1">
          <mxGeometry y="118" width="190" height="26" as="geometry" />
        </mxCell>
        <mxCell id="t6TdR9_frLN8_C7O2M3x-12" value="+ getInfo()" style="text;strokeColor=none;fillColor=none;align=left;verticalAlign=top;spacingLeft=4;spacingRight=4;overflow=hidden;rotatable=0;points=[[0,0.5],[1,0.5]];portConstraint=eastwest;" parent="t6TdR9_frLN8_C7O2M3x-8" vertex="1">
          <mxGeometry y="144" width="190" height="26" as="geometry" />
        </mxCell>
        <mxCell id="t6TdR9_frLN8_C7O2M3x-15" value="Login" style="swimlane;fontStyle=1;align=center;verticalAlign=top;childLayout=stackLayout;horizontal=1;startSize=26;horizontalStack=0;resizeParent=1;resizeParentMax=0;resizeLast=0;collapsible=1;marginBottom=0;" parent="1" vertex="1">
          <mxGeometry x="585" y="330" width="165" height="114" as="geometry" />
        </mxCell>
        <mxCell id="t6TdR9_frLN8_C7O2M3x-16" value="+ mail: String&#xa;+ password: String" style="text;strokeColor=none;fillColor=none;align=left;verticalAlign=top;spacingLeft=4;spacingRight=4;overflow=hidden;rotatable=0;points=[[0,0.5],[1,0.5]];portConstraint=eastwest;" parent="t6TdR9_frLN8_C7O2M3x-15" vertex="1">
          <mxGeometry y="26" width="165" height="54" as="geometry" />
        </mxCell>
        <mxCell id="t6TdR9_frLN8_C7O2M3x-17" value="" style="line;strokeWidth=1;fillColor=none;align=left;verticalAlign=middle;spacingTop=-1;spacingLeft=3;spacingRight=3;rotatable=0;labelPosition=right;points=[];portConstraint=eastwest;" parent="t6TdR9_frLN8_C7O2M3x-15" vertex="1">
          <mxGeometry y="80" width="165" height="8" as="geometry" />
        </mxCell>
        <mxCell id="t6TdR9_frLN8_C7O2M3x-18" value=" + confirmLogin(): boolean" style="text;strokeColor=none;fillColor=none;align=left;verticalAlign=top;spacingLeft=4;spacingRight=4;overflow=hidden;rotatable=0;points=[[0,0.5],[1,0.5]];portConstraint=eastwest;" parent="t6TdR9_frLN8_C7O2M3x-15" vertex="1">
          <mxGeometry y="88" width="165" height="26" as="geometry" />
        </mxCell>
        <mxCell id="t6TdR9_frLN8_C7O2M3x-19" value="Register" style="swimlane;fontStyle=1;align=center;verticalAlign=top;childLayout=stackLayout;horizontal=1;startSize=26;horizontalStack=0;resizeParent=1;resizeParentMax=0;resizeLast=0;collapsible=1;marginBottom=0;" parent="1" vertex="1">
          <mxGeometry x="270" y="330" width="170" height="130" as="geometry" />
        </mxCell>
        <mxCell id="t6TdR9_frLN8_C7O2M3x-20" value="+ mail: String&#xa;+ password: String&#xa;+ password2: String" style="text;strokeColor=none;fillColor=none;align=left;verticalAlign=top;spacingLeft=4;spacingRight=4;overflow=hidden;rotatable=0;points=[[0,0.5],[1,0.5]];portConstraint=eastwest;" parent="t6TdR9_frLN8_C7O2M3x-19" vertex="1">
          <mxGeometry y="26" width="170" height="54" as="geometry" />
        </mxCell>
        <mxCell id="t6TdR9_frLN8_C7O2M3x-21" value="" style="line;strokeWidth=1;fillColor=none;align=left;verticalAlign=middle;spacingTop=-1;spacingLeft=3;spacingRight=3;rotatable=0;labelPosition=right;points=[];portConstraint=eastwest;" parent="t6TdR9_frLN8_C7O2M3x-19" vertex="1">
          <mxGeometry y="80" width="170" height="8" as="geometry" />
        </mxCell>
        <mxCell id="t6TdR9_frLN8_C7O2M3x-22" value="+ checkValid(): boolean&#xa;+ confirmRegister(): boolean" style="text;strokeColor=none;fillColor=none;align=left;verticalAlign=top;spacingLeft=4;spacingRight=4;overflow=hidden;rotatable=0;points=[[0,0.5],[1,0.5]];portConstraint=eastwest;" parent="t6TdR9_frLN8_C7O2M3x-19" vertex="1">
          <mxGeometry y="88" width="170" height="42" as="geometry" />
        </mxCell>
        <mxCell id="t6TdR9_frLN8_C7O2M3x-28" value="UserActivity" style="swimlane;fontStyle=1;align=center;verticalAlign=top;childLayout=stackLayout;horizontal=1;startSize=30;horizontalStack=0;resizeParent=1;resizeParentMax=0;resizeLast=0;collapsible=1;marginBottom=0;" parent="1" vertex="1">
          <mxGeometry x="562.5" y="130" width="210" height="130" as="geometry" />
        </mxCell>
        <mxCell id="t6TdR9_frLN8_C7O2M3x-29" value="+ lastLogin:  String&#xa;+ timeLoggedIn: date" style="text;strokeColor=none;fillColor=none;align=left;verticalAlign=top;spacingLeft=4;spacingRight=4;overflow=hidden;rotatable=0;points=[[0,0.5],[1,0.5]];portConstraint=eastwest;" parent="t6TdR9_frLN8_C7O2M3x-28" vertex="1">
          <mxGeometry y="30" width="210" height="60" as="geometry" />
        </mxCell>
        <mxCell id="t6TdR9_frLN8_C7O2M3x-30" value="" style="line;strokeWidth=1;fillColor=none;align=left;verticalAlign=middle;spacingTop=-1;spacingLeft=3;spacingRight=3;rotatable=0;labelPosition=right;points=[];portConstraint=eastwest;" parent="t6TdR9_frLN8_C7O2M3x-28" vertex="1">
          <mxGeometry y="90" width="210" height="8" as="geometry" />
        </mxCell>
        <mxCell id="t6TdR9_frLN8_C7O2M3x-31" value="+ getTimeLogIn()" style="text;strokeColor=none;fillColor=none;align=left;verticalAlign=top;spacingLeft=4;spacingRight=4;overflow=hidden;rotatable=0;points=[[0,0.5],[1,0.5]];portConstraint=eastwest;" parent="t6TdR9_frLN8_C7O2M3x-28" vertex="1">
          <mxGeometry y="98" width="210" height="32" as="geometry" />
        </mxCell>
        <mxCell id="t6TdR9_frLN8_C7O2M3x-32" value="Admin" style="swimlane;fontStyle=1;align=center;verticalAlign=top;childLayout=stackLayout;horizontal=1;startSize=26;horizontalStack=0;resizeParent=1;resizeParentMax=0;resizeLast=0;collapsible=1;marginBottom=0;" parent="1" vertex="1">
          <mxGeometry x="910" y="546" width="160" height="162" as="geometry" />
        </mxCell>
        <mxCell id="t6TdR9_frLN8_C7O2M3x-33" value="+ name: String" style="text;strokeColor=none;fillColor=none;align=left;verticalAlign=top;spacingLeft=4;spacingRight=4;overflow=hidden;rotatable=0;points=[[0,0.5],[1,0.5]];portConstraint=eastwest;" parent="t6TdR9_frLN8_C7O2M3x-32" vertex="1">
          <mxGeometry y="26" width="160" height="26" as="geometry" />
        </mxCell>
        <mxCell id="t6TdR9_frLN8_C7O2M3x-34" value="" style="line;strokeWidth=1;fillColor=none;align=left;verticalAlign=middle;spacingTop=-1;spacingLeft=3;spacingRight=3;rotatable=0;labelPosition=right;points=[];portConstraint=eastwest;" parent="t6TdR9_frLN8_C7O2M3x-32" vertex="1">
          <mxGeometry y="52" width="160" height="8" as="geometry" />
        </mxCell>
        <mxCell id="acrNoJfUAOrdeSP8teba-8" value="+ method(type): type" style="text;strokeColor=none;fillColor=none;align=left;verticalAlign=top;spacingLeft=4;spacingRight=4;overflow=hidden;rotatable=0;points=[[0,0.5],[1,0.5]];portConstraint=eastwest;fontFamily=Helvetica;fontSize=12;fontColor=default;startSize=26;" parent="t6TdR9_frLN8_C7O2M3x-32" vertex="1">
          <mxGeometry y="60" width="160" height="26" as="geometry" />
        </mxCell>
        <mxCell id="t6TdR9_frLN8_C7O2M3x-35" value="+ deleteUser(): boolean&#xa;+ viewUserInfo()" style="text;strokeColor=none;fillColor=none;align=left;verticalAlign=top;spacingLeft=4;spacingRight=4;overflow=hidden;rotatable=0;points=[[0,0.5],[1,0.5]];portConstraint=eastwest;" parent="t6TdR9_frLN8_C7O2M3x-32" vertex="1">
          <mxGeometry y="86" width="160" height="50" as="geometry" />
        </mxCell>
        <mxCell id="acrNoJfUAOrdeSP8teba-6" value="+ field: type" style="text;strokeColor=none;fillColor=none;align=left;verticalAlign=top;spacingLeft=4;spacingRight=4;overflow=hidden;rotatable=0;points=[[0,0.5],[1,0.5]];portConstraint=eastwest;fontFamily=Helvetica;fontSize=12;fontColor=default;startSize=26;" parent="t6TdR9_frLN8_C7O2M3x-32" vertex="1">
          <mxGeometry y="136" width="160" height="26" as="geometry" />
        </mxCell>
        <mxCell id="t6TdR9_frLN8_C7O2M3x-42" value="Streamer" style="swimlane;fontStyle=1;align=center;verticalAlign=top;childLayout=stackLayout;horizontal=1;startSize=26;horizontalStack=0;resizeParent=1;resizeParentMax=0;resizeLast=0;collapsible=1;marginBottom=0;fontFamily=Helvetica;fontSize=12;fontColor=default;strokeColor=default;fillColor=default;" parent="1" vertex="1">
          <mxGeometry x="910" y="808" width="160" height="170" as="geometry" />
        </mxCell>
        <mxCell id="t6TdR9_frLN8_C7O2M3x-43" value="+ haveChannel: boolean&#xa;+ dateJoin: date" style="text;strokeColor=none;fillColor=none;align=left;verticalAlign=top;spacingLeft=4;spacingRight=4;overflow=hidden;rotatable=0;points=[[0,0.5],[1,0.5]];portConstraint=eastwest;fontFamily=Helvetica;fontSize=12;fontColor=default;startSize=26;" parent="t6TdR9_frLN8_C7O2M3x-42" vertex="1">
          <mxGeometry y="26" width="160" height="74" as="geometry" />
        </mxCell>
        <mxCell id="t6TdR9_frLN8_C7O2M3x-44" value="" style="line;strokeWidth=1;fillColor=none;align=left;verticalAlign=middle;spacingTop=-1;spacingLeft=3;spacingRight=3;rotatable=0;labelPosition=right;points=[];portConstraint=eastwest;fontFamily=Helvetica;fontSize=12;fontColor=default;startSize=26;" parent="t6TdR9_frLN8_C7O2M3x-42" vertex="1">
          <mxGeometry y="100" width="160" height="8" as="geometry" />
        </mxCell>
        <mxCell id="t6TdR9_frLN8_C7O2M3x-45" value="+ delViewer()&#xa;+ blockViewer()&#xa;" style="text;strokeColor=none;fillColor=none;align=left;verticalAlign=top;spacingLeft=4;spacingRight=4;overflow=hidden;rotatable=0;points=[[0,0.5],[1,0.5]];portConstraint=eastwest;fontFamily=Helvetica;fontSize=12;fontColor=default;startSize=26;" parent="t6TdR9_frLN8_C7O2M3x-42" vertex="1">
          <mxGeometry y="108" width="160" height="62" as="geometry" />
        </mxCell>
        <mxCell id="acrNoJfUAOrdeSP8teba-1" value="Search" style="swimlane;fontStyle=1;align=center;verticalAlign=top;childLayout=stackLayout;horizontal=1;startSize=26;horizontalStack=0;resizeParent=1;resizeParentMax=0;resizeLast=0;collapsible=1;marginBottom=0;fontFamily=Helvetica;fontSize=12;fontColor=default;strokeColor=default;fillColor=default;" parent="1" vertex="1">
          <mxGeometry x="130" y="600" width="160" height="86" as="geometry" />
        </mxCell>
        <mxCell id="acrNoJfUAOrdeSP8teba-2" value="+  name: String" style="text;strokeColor=none;fillColor=none;align=left;verticalAlign=top;spacingLeft=4;spacingRight=4;overflow=hidden;rotatable=0;points=[[0,0.5],[1,0.5]];portConstraint=eastwest;fontFamily=Helvetica;fontSize=12;fontColor=default;startSize=26;" parent="acrNoJfUAOrdeSP8teba-1" vertex="1">
          <mxGeometry y="26" width="160" height="26" as="geometry" />
        </mxCell>
        <mxCell id="acrNoJfUAOrdeSP8teba-3" value="" style="line;strokeWidth=1;fillColor=none;align=left;verticalAlign=middle;spacingTop=-1;spacingLeft=3;spacingRight=3;rotatable=0;labelPosition=right;points=[];portConstraint=eastwest;fontFamily=Helvetica;fontSize=12;fontColor=default;startSize=26;" parent="acrNoJfUAOrdeSP8teba-1" vertex="1">
          <mxGeometry y="52" width="160" height="8" as="geometry" />
        </mxCell>
        <mxCell id="acrNoJfUAOrdeSP8teba-4" value="+ search()" style="text;strokeColor=none;fillColor=none;align=left;verticalAlign=top;spacingLeft=4;spacingRight=4;overflow=hidden;rotatable=0;points=[[0,0.5],[1,0.5]];portConstraint=eastwest;fontFamily=Helvetica;fontSize=12;fontColor=default;startSize=26;" parent="acrNoJfUAOrdeSP8teba-1" vertex="1">
          <mxGeometry y="60" width="160" height="26" as="geometry" />
        </mxCell>
        <mxCell id="acrNoJfUAOrdeSP8teba-9" value="StreamRecommend" style="swimlane;fontStyle=1;align=center;verticalAlign=top;childLayout=stackLayout;horizontal=1;startSize=26;horizontalStack=0;resizeParent=1;resizeParentMax=0;resizeLast=0;collapsible=1;marginBottom=0;fontFamily=Helvetica;fontSize=12;fontColor=default;strokeColor=default;fillColor=default;" parent="1" vertex="1">
          <mxGeometry x="270" y="830" width="160" height="110" as="geometry" />
        </mxCell>
        <mxCell id="acrNoJfUAOrdeSP8teba-10" value="+ idUser: String&#xa;+ recentStream: String" style="text;strokeColor=none;fillColor=none;align=left;verticalAlign=top;spacingLeft=4;spacingRight=4;overflow=hidden;rotatable=0;points=[[0,0.5],[1,0.5]];portConstraint=eastwest;fontFamily=Helvetica;fontSize=12;fontColor=default;startSize=26;" parent="acrNoJfUAOrdeSP8teba-9" vertex="1">
          <mxGeometry y="26" width="160" height="34" as="geometry" />
        </mxCell>
        <mxCell id="acrNoJfUAOrdeSP8teba-11" value="" style="line;strokeWidth=1;fillColor=none;align=left;verticalAlign=middle;spacingTop=-1;spacingLeft=3;spacingRight=3;rotatable=0;labelPosition=right;points=[];portConstraint=eastwest;fontFamily=Helvetica;fontSize=12;fontColor=default;startSize=26;" parent="acrNoJfUAOrdeSP8teba-9" vertex="1">
          <mxGeometry y="60" width="160" height="8" as="geometry" />
        </mxCell>
        <mxCell id="acrNoJfUAOrdeSP8teba-12" value="+ showList()&#xa;+ addFav()" style="text;strokeColor=none;fillColor=none;align=left;verticalAlign=top;spacingLeft=4;spacingRight=4;overflow=hidden;rotatable=0;points=[[0,0.5],[1,0.5]];portConstraint=eastwest;fontFamily=Helvetica;fontSize=12;fontColor=default;startSize=26;" parent="acrNoJfUAOrdeSP8teba-9" vertex="1">
          <mxGeometry y="68" width="160" height="42" as="geometry" />
        </mxCell>
        <mxCell id="acrNoJfUAOrdeSP8teba-13" value="Favorite" style="swimlane;fontStyle=1;align=center;verticalAlign=top;childLayout=stackLayout;horizontal=1;startSize=26;horizontalStack=0;resizeParent=1;resizeParentMax=0;resizeLast=0;collapsible=1;marginBottom=0;fontFamily=Helvetica;fontSize=12;fontColor=default;strokeColor=default;fillColor=default;" parent="1" vertex="1">
          <mxGeometry x="587.5" y="854" width="160" height="100" as="geometry" />
        </mxCell>
        <mxCell id="acrNoJfUAOrdeSP8teba-14" value="+ nameStreamer:  array" style="text;strokeColor=none;fillColor=none;align=left;verticalAlign=top;spacingLeft=4;spacingRight=4;overflow=hidden;rotatable=0;points=[[0,0.5],[1,0.5]];portConstraint=eastwest;fontFamily=Helvetica;fontSize=12;fontColor=default;startSize=26;" parent="acrNoJfUAOrdeSP8teba-13" vertex="1">
          <mxGeometry y="26" width="160" height="26" as="geometry" />
        </mxCell>
        <mxCell id="acrNoJfUAOrdeSP8teba-15" value="" style="line;strokeWidth=1;fillColor=none;align=left;verticalAlign=middle;spacingTop=-1;spacingLeft=3;spacingRight=3;rotatable=0;labelPosition=right;points=[];portConstraint=eastwest;fontFamily=Helvetica;fontSize=12;fontColor=default;startSize=26;" parent="acrNoJfUAOrdeSP8teba-13" vertex="1">
          <mxGeometry y="52" width="160" height="8" as="geometry" />
        </mxCell>
        <mxCell id="acrNoJfUAOrdeSP8teba-16" value="+ addStreamer()&#xa;+ delStreamer()" style="text;strokeColor=none;fillColor=none;align=left;verticalAlign=top;spacingLeft=4;spacingRight=4;overflow=hidden;rotatable=0;points=[[0,0.5],[1,0.5]];portConstraint=eastwest;fontFamily=Helvetica;fontSize=12;fontColor=default;startSize=26;" parent="acrNoJfUAOrdeSP8teba-13" vertex="1">
          <mxGeometry y="60" width="160" height="40" as="geometry" />
        </mxCell>
        <mxCell id="s0g4QlReqzgfa-PN_wvU-3" value="" style="endArrow=diamondThin;endFill=1;endSize=24;html=1;rounded=0;entryX=0;entryY=0.5;entryDx=0;entryDy=0;exitX=1;exitY=0.5;exitDx=0;exitDy=0;" edge="1" parent="1" source="t6TdR9_frLN8_C7O2M3x-20" target="t6TdR9_frLN8_C7O2M3x-16">
          <mxGeometry width="160" relative="1" as="geometry">
            <mxPoint x="320" y="585" as="sourcePoint" />
            <mxPoint x="480" y="585" as="targetPoint" />
          </mxGeometry>
        </mxCell>
        <mxCell id="s0g4QlReqzgfa-PN_wvU-4" value="" style="endArrow=diamondThin;endFill=1;endSize=24;html=1;rounded=0;entryX=1;entryY=0.5;entryDx=0;entryDy=0;" edge="1" parent="1" source="t6TdR9_frLN8_C7O2M3x-42" target="acrNoJfUAOrdeSP8teba-14">
          <mxGeometry width="160" relative="1" as="geometry">
            <mxPoint x="90" y="720" as="sourcePoint" />
            <mxPoint x="250" y="720" as="targetPoint" />
          </mxGeometry>
        </mxCell>
        <mxCell id="s0g4QlReqzgfa-PN_wvU-5" value="" style="endArrow=diamondThin;endFill=1;endSize=24;html=1;rounded=0;exitX=0;exitY=0.5;exitDx=0;exitDy=0;entryX=0.5;entryY=0;entryDx=0;entryDy=0;" edge="1" parent="1" source="t6TdR9_frLN8_C7O2M3x-11" target="acrNoJfUAOrdeSP8teba-9">
          <mxGeometry width="160" relative="1" as="geometry">
            <mxPoint x="160" y="559.9999999999998" as="sourcePoint" />
            <mxPoint x="780" y="420" as="targetPoint" />
            <Array as="points">
              <mxPoint x="350" y="700" />
            </Array>
          </mxGeometry>
        </mxCell>
        <mxCell id="s0g4QlReqzgfa-PN_wvU-6" value="" style="endArrow=diamondThin;endFill=1;endSize=24;html=1;rounded=0;entryX=0.5;entryY=0;entryDx=0;entryDy=0;" edge="1" parent="1" source="t6TdR9_frLN8_C7O2M3x-18" target="t6TdR9_frLN8_C7O2M3x-8">
          <mxGeometry width="160" relative="1" as="geometry">
            <mxPoint x="160" y="559.9999999999998" as="sourcePoint" />
            <mxPoint x="320" y="559.9999999999998" as="targetPoint" />
          </mxGeometry>
        </mxCell>
        <mxCell id="s0g4QlReqzgfa-PN_wvU-7" value="" style="endArrow=diamondThin;endFill=1;endSize=24;html=1;rounded=0;exitX=0.5;exitY=0;exitDx=0;exitDy=0;" edge="1" parent="1" source="t6TdR9_frLN8_C7O2M3x-15" target="t6TdR9_frLN8_C7O2M3x-31">
          <mxGeometry width="160" relative="1" as="geometry">
            <mxPoint x="160" y="559.9999999999998" as="sourcePoint" />
            <mxPoint x="320" y="559.9999999999998" as="targetPoint" />
          </mxGeometry>
        </mxCell>
        <mxCell id="s0g4QlReqzgfa-PN_wvU-8" value="" style="endArrow=diamondThin;endFill=1;endSize=24;html=1;rounded=0;entryX=1;entryY=0.5;entryDx=0;entryDy=0;exitX=0;exitY=0.5;exitDx=0;exitDy=0;" edge="1" parent="1" source="t6TdR9_frLN8_C7O2M3x-9" target="acrNoJfUAOrdeSP8teba-2">
          <mxGeometry width="160" relative="1" as="geometry">
            <mxPoint x="160" y="559.9999999999998" as="sourcePoint" />
            <mxPoint x="320" y="559.9999999999998" as="targetPoint" />
          </mxGeometry>
        </mxCell>
        <mxCell id="s0g4QlReqzgfa-PN_wvU-9" value="" style="endArrow=diamondThin;endFill=1;endSize=24;html=1;rounded=0;entryX=0.5;entryY=0;entryDx=0;entryDy=0;" edge="1" parent="1" source="t6TdR9_frLN8_C7O2M3x-12" target="acrNoJfUAOrdeSP8teba-13">
          <mxGeometry width="160" relative="1" as="geometry">
            <mxPoint x="180" y="769.9999999999998" as="sourcePoint" />
            <mxPoint x="340" y="769.9999999999998" as="targetPoint" />
          </mxGeometry>
        </mxCell>
        <mxCell id="s0g4QlReqzgfa-PN_wvU-23" value="" style="endArrow=block;endFill=1;html=1;edgeStyle=orthogonalEdgeStyle;align=left;verticalAlign=top;rounded=0;" edge="1" parent="1" source="t6TdR9_frLN8_C7O2M3x-32" target="t6TdR9_frLN8_C7O2M3x-8">
          <mxGeometry x="-1" relative="1" as="geometry">
            <mxPoint x="1140" y="640.41" as="sourcePoint" />
            <mxPoint x="1300" y="640.41" as="targetPoint" />
          </mxGeometry>
        </mxCell>
        <mxCell id="s0g4QlReqzgfa-PN_wvU-24" value="1" style="edgeLabel;resizable=0;html=1;align=left;verticalAlign=bottom;" connectable="0" vertex="1" parent="s0g4QlReqzgfa-PN_wvU-23">
          <mxGeometry x="-1" relative="1" as="geometry" />
        </mxCell>
        <mxCell id="s0g4QlReqzgfa-PN_wvU-27" value="" style="endArrow=block;endFill=1;html=1;edgeStyle=orthogonalEdgeStyle;align=left;verticalAlign=top;rounded=0;entryX=1;entryY=0.5;entryDx=0;entryDy=0;exitX=0;exitY=0.117;exitDx=0;exitDy=0;exitPerimeter=0;" edge="1" parent="1" source="t6TdR9_frLN8_C7O2M3x-42" target="t6TdR9_frLN8_C7O2M3x-11">
          <mxGeometry x="-1" relative="1" as="geometry">
            <mxPoint x="900" y="810" as="sourcePoint" />
            <mxPoint x="300" y="839.9999999999998" as="targetPoint" />
            <Array as="points">
              <mxPoint x="910" y="820" />
              <mxPoint x="850" y="820" />
              <mxPoint x="850" y="673" />
              <mxPoint x="763" y="673" />
            </Array>
          </mxGeometry>
        </mxCell>
      </root>
    </mxGraphModel>
  </diagram>
</mxfile>
